<svg width="10" height="10" viewBox="0 0 10 10" fill="none" xmlns="http://www.w3.org/2000/svg">
<g clip-path="url(#clip0)">
<path d="M4.6098 7.77792L0.159755 3.32779C0.0567475 3.22486 -4.4802e-08 3.08747 -3.83982e-08 2.94096C-3.19944e-08 2.79446 0.0567475 2.65706 0.159755 2.55414L0.487394 2.22642C0.700889 2.01317 1.04788 2.01317 1.26105 2.22642L4.99793 5.9633L8.73895 2.22227C8.84196 2.11934 8.97928 2.06252 9.1257 2.06252C9.27228 2.06252 9.4096 2.11934 9.51269 2.22227L9.84025 2.54999C9.94325 2.653 10 2.79031 10 2.93682C10 3.08332 9.94325 3.22072 9.84025 3.32364L5.38613 7.77792C5.2828 7.88109 5.14484 7.93775 4.99817 7.93743C4.85094 7.93775 4.71305 7.88109 4.6098 7.77792Z" fill="#2D79AD"/>
</g>
<defs>
<clipPath id="clip0">
<rect width="10" height="10" fill="white" transform="matrix(-4.37114e-08 1 1 4.37114e-08 0 0)"/>
</clipPath>
</defs>
</svg>
