<svg xmlns="http://www.w3.org/2000/svg" width="117" height="114" viewBox="0 0 117 114">
    <g fill="none" fill-rule="evenodd">
        <path fill="#444" fill-rule="nonzero" d="M66.622 113.32c-18.661 0-33.842-15.182-33.842-33.843v-8.65a4.367 4.367 0 0 1 8.733 0v8.65c0 13.845 11.264 25.109 25.109 25.109 13.844 0 25.108-11.264 25.108-25.109a4.367 4.367 0 0 1 8.734 0c0 18.661-15.181 33.842-33.842 33.842z"/>
        <path stroke="#00D8A0" stroke-width="8.45" d="M103.611 50.906l8.098 14.026-8.098 14.027H87.415l-8.098-14.027 8.098-14.026z"/>
        <path fill="#444" fill-rule="nonzero" d="M37.494 74.295C17.027 74.295.377 57.645.377 37.178V4.428A4.367 4.367 0 0 1 4.743.06h13.1a4.367 4.367 0 0 1 0 8.733H9.11v28.384c0 15.651 12.734 28.383 28.384 28.383S65.878 52.83 65.878 37.178V8.794h-8.734a4.367 4.367 0 0 1 0-8.733h13.1a4.367 4.367 0 0 1 4.367 4.366v32.75c0 20.468-16.65 37.118-37.117 37.118z"/>
    </g>
</svg>
