<svg xmlns="http://www.w3.org/2000/svg" width="16" height="16" viewBox="0 0 16 16">
    <g fill="none">
        <path fill="#FFF" d="M17.07 2.344h-4.922c-.064 0-.117.052-.117.117v1.094c0 .064.053.117.117.117h3.133L11.39 7.564c-.977-.752-2.168-1.158-3.42-1.158-1.502 0-2.916.586-3.977 1.649-1.06 1.062-1.648 2.474-1.648 3.976 0 1.502.586 2.916 1.648 3.977 1.06 1.062 2.475 1.648 3.977 1.648 1.502 0 2.916-.586 3.976-1.648 1.063-1.06 1.649-2.475 1.649-3.977 0-1.252-.406-2.44-1.156-3.416l3.89-3.89v3.127c0 .064.053.117.117.117h1.094c.065 0 .117-.053.117-.117V2.93c0-.323-.263-.586-.586-.586zM7.97 16.172c-2.283 0-4.14-1.858-4.14-4.14 0-2.284 1.857-4.141 4.14-4.141 2.283 0 4.14 1.857 4.14 4.14 0 2.283-1.857 4.14-4.14 4.14z" transform="translate(-2 -2)"/>
    </g>
</svg>
