<svg xmlns="http://www.w3.org/2000/svg" width="20" height="20">
    <path data-name="Tracé 34" d="M-12.861-.936h-1.328v-4.377a2.5 2.5 0 0 0-2.5-2.5h-4.844a2.5 2.5 0 0 0-2.5 2.5v4.375h-1.328a.625.625 0 0 0-.625.626v7.5a.625.625 0 0 0 .625.625h12.5a.625.625 0 0 0 .625-.625v-7.5a.625.625 0 0 0-.625-.626zm-9.766-4.377a1.094 1.094 0 0 1 1.094-1.093h4.844A1.1 1.1 0 0 1-15.6-5.312v4.375h-7.032zm8.985 11.72h-10.939V.469h10.94v5.937zm-6.016-2.716v1.036a.157.157 0 0 0 .156.156h.782a.156.156 0 0 0 .156-.156V3.691a.936.936 0 0 0 .39-.761.938.938 0 0 0-.937-.938.938.938 0 0 0-.938.938.936.936 0 0 0 .391.761z" transform="translate(29.111 10)" style="fill:#8e8e8e"/>
</svg>
