<svg xmlns="http://www.w3.org/2000/svg" width="14" height="18" viewBox="0 0 14 18">
    <g fill="none" fill-rule="nonzero">
        <path fill="#444" d="M9.763 17.725c-2.985 0-5.87-2.068-7.847-5.753-2.333-4.35-2.075-8.804.628-10.831.889-.667 2.084-.98 3.044-.8C6.8.567 7.675 2.817 7.995 3.774c.803 2.405.314 2.94.153 3.117-.233.254-.772.537-2.186 1.141.404 1.108 1.268 2.514 1.712 2.932l.039-.019c1.296-.645 2.102-.975 2.643-.877 1.583.287 3.317 3.855 3.317 5.236 0 1.103-1.191 1.884-1.942 2.117a6.613 6.613 0 0 1-1.968.303zm1.801-.908h.017-.017zm-6.54-15.18c-.532 0-1.183.22-1.67.584C1.591 3.544.761 6.96 3.106 11.333c1.634 3.047 4.652 5.908 8.225 4.8.501-.156.991-.606.991-.828 0-1.156-1.548-3.736-2.185-3.903-.165.01-.618.154-1.823.753-.39.194-.472.235-.65.235h-.002c-1.343-.002-2.949-3.602-3.177-4.583-.123-.561.31-.745.768-.94.985-.417 1.604-.705 1.845-.856.15-.997-1.212-4.118-1.778-4.348a1.632 1.632 0 0 0-.295-.025z"/>
        <path fill="#00D8A0" d="M11.94 6.72l-1.587-.575c.65-1.793.261-3.46-1.069-4.577L10.37.275c1.877 1.575 2.463 3.985 1.57 6.446z"/>
    </g>
</svg>
