<svg xmlns="http://www.w3.org/2000/svg" width="16" height="16" viewBox="0 0 16 16">
    <g fill="none">
        <path fill="#444" d="M16.768 14.914c-.37-.875-.9-1.66-1.575-2.334-.673-.674-1.459-1.203-2.334-1.574l-.023-.01c1.217-.879 2.008-2.31 2.008-3.926 0-2.675-2.168-4.843-4.844-4.843S5.156 4.395 5.156 7.07c0 1.616.791 3.047 2.008 3.928l-.023.01c-.875.369-1.66.898-2.334 1.574-.674.674-1.203 1.459-1.575 2.334-.363.855-.556 1.764-.576 2.697-.002.088.069.16.156.16h1.172c.086 0 .155-.068.157-.152.039-1.508.644-2.92 1.714-3.99 1.108-1.108 2.579-1.717 4.145-1.717 1.566 0 3.037.61 4.145 1.717 1.07 1.07 1.675 2.482 1.714 3.99.002.086.07.152.157.152h1.172c.087 0 .158-.072.156-.16-.02-.933-.213-1.842-.576-2.699zM10 10.43c-.896 0-1.74-.35-2.375-.985-.635-.634-.984-1.478-.984-2.375 0-.896.35-1.74.984-2.375.635-.634 1.479-.984 2.375-.984.896 0 1.74.35 2.375.984.635.635.984 1.479.984 2.375 0 .897-.35 1.74-.984 2.375-.635.635-1.479.985-2.375.985z" transform="translate(-2 -2)"/>
    </g>
</svg>
