<svg xmlns="http://www.w3.org/2000/svg" width="12" height="18" viewBox="0 0 12 18">
    <g fill="none">
        <path fill="#9D9D9D" d="M13.922 10.719c1.047-1.047 1.625-2.442 1.625-3.922 0-1.483-.576-2.875-1.625-3.922C12.875 1.828 11.48 1.25 10 1.25s-2.875.576-3.922 1.625c-1.047 1.049-1.625 2.44-1.625 3.922 0 1.246.408 2.43 1.16 3.396.143.184.297.358.463.526.166.166.342.32.524.463.773.601 1.685.984 2.658 1.113v2.08H7.03c-.086 0-.156.07-.156.156v1.172c0 .086.07.156.156.156h2.227v2.735c0 .086.07.156.156.156h1.172c.086 0 .156-.07.156-.156v-2.735h2.227c.086 0 .156-.07.156-.156v-1.172c0-.086-.07-.156-.156-.156h-2.227v-2.08c1.201-.16 2.309-.705 3.18-1.576zm-3.922.14c-1.086 0-2.104-.421-2.873-1.19-.768-.767-1.19-1.786-1.19-2.872 0-1.086.422-2.104 1.19-2.873.768-.77 1.787-1.19 2.873-1.19 1.086 0 2.104.422 2.873 1.19.768.767 1.19 1.787 1.19 2.873 0 1.086-.422 2.103-1.19 2.873-.77.768-1.787 1.19-2.873 1.19z" transform="translate(-4 -1)"/>
    </g>
</svg>
