<svg xmlns="http://www.w3.org/2000/svg" width="22" height="22" viewBox="0 0 22 22">
    <g fill="none">
        <path fill="#00D8A0" d="M12.044 21.621l-1.747-1c.102-.179.153-.268-.552-.916-.36-.33-.73-.67-.83-1.18-.22-1.124-.694-1.767-1.407-1.91-.423-.084-1.727.167-2.906.56l-.637-1.91c.62-.207 2.739-.864 3.938-.624.878.176 2.413.846 2.957 3.347.063.066.166.16.247.234.565.52 1.89 1.736.937 3.4z" transform="translate(-1 -1)"/>
        <path fill="#444" d="M12 22.47C6.227 22.47 1.53 17.773 1.53 12 1.53 6.227 6.227 1.53 12 1.53c5.773 0 10.47 4.697 10.47 10.47 0 5.773-4.697 10.47-10.47 10.47zm0-19.33c-4.885 0-8.859 3.975-8.859 8.86s3.974 8.86 8.86 8.86c4.884 0 8.858-3.975 8.858-8.86S16.885 3.14 12 3.14z" transform="translate(-1 -1)"/>
        <path fill="#444" d="M8.497 14.123c-.78 0-1.658-.346-2.354-1.164-.401-.472-.548-1.014-.666-1.45-.166-.613-.202-.619-.356-.64-.715-.103-1.648.367-1.947.557-.375.238-.872.128-1.111-.245-.24-.374-.132-.87.24-1.11.161-.104 1.607-1.002 3.046-.797 1.24.177 1.517 1.203 1.683 1.815.087.324.17.63.338.827.49.577 1.015.636 1.296.583-.091-.269-.204-.574-.314-.872-.45-1.219-.701-1.933-.616-2.448.272-1.63 1.282-2.686 2.703-2.824.498-.05.851-.248.944-.533.049-.149.014-.294-.092-.388-.476-.424-2.675-.893-4.379-.65-.439.063-.848-.242-.91-.683-.064-.44.242-.848.683-.911 1.833-.262 4.65.128 5.676 1.04.582.517.799 1.338.554 2.09-.297.913-1.165 1.525-2.32 1.638-.885.086-1.172.932-1.264 1.453.018.269.339 1.135.531 1.657.177.479.344.93.456 1.313.167.572-.117 1.153-.725 1.48-.312.169-.69.262-1.096.262zm7.35 7.551c-.09 0-.18-.014-.268-.046-.42-.147-.64-.607-.492-1.026.218-.622.77-2.212.97-2.89-.167-.15-.506-.37-.746-.526-.415-.27-.885-.577-1.24-.932-.693-.693-1.261-2.114-.95-3.383.178-.721.705-1.68 2.212-2.153.456-.143 1.547-.28 2.926-.443l.26-.03c-.095-.25-.22-.529-.328-.736-.177.026-.395.062-.576.092-1.772.294-3.302.546-3.63-.57-.392-1.335 2.64-4.456 3.38-4.86.39-.213.88-.068 1.093.322.213.39.069.88-.322 1.093-.528.288-1.786 1.757-2.332 2.64.509-.042 1.189-.155 1.548-.214 1.015-.168 1.356-.224 1.7.006.46.307 1.36 2.212 1.208 2.974-.076.383-.351.667-.719.74-.154.031-.48.07-1.093.143-.798.095-2.284.27-2.633.38-.644.202-1.013.53-1.13 1-.175.714.243 1.578.525 1.86.236.236.615.483.981.722.807.526 1.722 1.122 1.486 2.065-.16.64-.978 2.97-1.071 3.234-.116.331-.427.538-.76.538z" transform="translate(-1 -1)"/>
    </g>
</svg>
