<svg xmlns="http://www.w3.org/2000/svg" width="151" height="79" viewBox="0 0 151 79">
    <g fill="none" fill-rule="evenodd" opacity=".8">
        <path fill="#00D8A0" fill-rule="nonzero" d="M144 8c3.48 0 6.3 2.82 6.3 6.3s-2.82 6.3-6.3 6.3h-36c3.48 0 6.3 2.82 6.3 6.3s-2.82 6.3-6.3 6.3h19.8c3.48 0 6.3 2.82 6.3 6.3s-2.82 6.3-6.3 6.3h-9.157c-4.387 0-7.943 2.82-7.943 6.3 0 2.32 1.8 4.42 5.4 6.3 3.48 0 6.3 2.82 6.3 6.3s-2.82 6.3-6.3 6.3H41.4c-3.48 0-6.3-2.82-6.3-6.3s2.82-6.3 6.3-6.3H6.3c-3.48 0-6.3-2.82-6.3-6.3s2.82-6.3 6.3-6.3h36c3.48 0 6.3-2.82 6.3-6.3s-2.82-6.3-6.3-6.3H19.8c-3.48 0-6.3-2.82-6.3-6.3s2.82-6.3 6.3-6.3h36c-3.48 0-6.3-2.82-6.3-6.3S52.32 8 55.8 8H144zm0 25.2c3.48 0 6.3 2.82 6.3 6.3s-2.82 6.3-6.3 6.3-6.3-2.82-6.3-6.3 2.82-6.3 6.3-6.3z" opacity=".05" transform="translate(0 1)"/>
        <g stroke-width="2.25" transform="translate(0 1) translate(36.3 .4)">
            <circle cx="30.15" cy="30.15" r="30.15" fill="#F3F7FF" stroke="#444"/>
            <path fill="#FFF" stroke="#00D8A0" stroke-linecap="round" d="M25.319 53.545c1.583.292 3.193.444 4.831.455C43.322 54 54 43.322 54 30.15S43.322 6.3 30.15 6.3c-3.384 0-6.603.705-9.519 1.975-5.067 2.208-9.218 6.125-11.725 11.023C7.24 22.553 6.3 26.242 6.3 30.15c0 3.546.774 6.911 2.162 9.936.99 2.16 2.295 4.146 3.854 5.9"/>
            <path stroke="#00D8A0" stroke-linecap="round" d="M15.118 48.667c1.933 1.572 4.117 2.846 6.483 3.755"/>
            <path stroke="#00D8A0" stroke-linecap="round" stroke-opacity=".669" d="M30.6 13.5c-1.55 0-3.053.206-4.48.593C18.848 16.062 13.5 22.706 13.5 30.6"/>
            <path stroke="#444" d="M54.9 54L60.3 59.4"/>
            <path fill="#00D8A0" fill-opacity=".173" stroke="#444" d="M59.427 58.527c-1.703 1.704-1.703 4.466 0 6.169l9.977 9.977c1.703 1.703 4.465 1.703 6.169 0 1.703-1.704 1.703-4.466 0-6.169l-9.977-9.977c-1.703-1.703-4.465-1.703-6.169 0z"/>
            <path stroke="#FFF" stroke-linecap="round" d="M63.9 60.3L73.8 70.2"/>
        </g>
        <path stroke="#00D8A0" stroke-linecap="round" stroke-linejoin="round" stroke-opacity=".669" stroke-width="2.25" d="M120.45 23.8h-15.458m21.758 0h-2m-9.992 7H107.4M29.55 42.7H14.092m-5.242 0h-3.8m28.708 7.9H26.4" transform="translate(0 1)"/>
    </g>
</svg>
