<svg xmlns="http://www.w3.org/2000/svg" width="16" height="16">
    <g style="opacity:.3">
        <path data-name="Rectangle 48 Copy 9" style="fill:none" d="M0 0h16v16H0z"/>
        <path data-name="Soustraction 44" d="M-10140.092-344.954h-11.765a1.129 1.129 0 0 1-1.129-1.126v-9.779a1.128 1.128 0 0 1 1.129-1.124h11.765a1.126 1.126 0 0 1 1.126 1.124v9.779a1.127 1.127 0 0 1-1.126 1.126zm-11.765-10.448v9.321h11.768v-9.319l-4.65 3.888a1.678 1.678 0 0 1-1.19.5h-.01a1.684 1.684 0 0 1-1.187-.489l-4.729-3.9zm1.213-.458 4.276 3.527.023.02a.568.568 0 0 0 .4.171.563.563 0 0 0 .41-.173l.021-.025.025-.02 4.187-3.5z" transform="translate(10153.979 358.983)" style="stroke:transparent;stroke-miterlimit:10"/>
    </g>
</svg>
