<svg id="Icon_Date" data-name="Icon/Date" xmlns="http://www.w3.org/2000/svg" width="16" height="13.712">
    <defs>
        <clipPath id="clip-path">
            <path id="Mask" class="cls-1" d="M12.1-13.712a.559.559 0 0 0-.558.559v.441H4.455v-.441a.559.559 0 0 0-.557-.559.559.559 0 0 0-.557.559v.441H1.283A1.285 1.285 0 0 0 0-11.427v10.142A1.285 1.285 0 0 0 1.283 0h13.435A1.285 1.285 0 0 0 16-1.285v-10.142a1.289 1.289 0 0 0-1.284-1.285h-2.058v-.441a.559.559 0 0 0-.558-.559zm0 3.133a.559.559 0 0 0 .557-.559v-.289h2.06v1.751H1.283v-1.751h2.06v.289a.559.559 0 0 0 .557.559.559.559 0 0 0 .557-.559v-.289h7.088v.289a.559.559 0 0 0 .555.558zM1.283-1.285v-7.279h13.435v7.278zm10.062-6.19H4.653a.559.559 0 0 0-.557.559.559.559 0 0 0 .557.559h6.694a.559.559 0 0 0 .557-.559.562.562 0 0 0-.559-.559zm0 3.027H4.653a.559.559 0 0 0-.557.559.559.559 0 0 0 .557.559h6.694a.559.559 0 0 0 .557-.559.562.562 0 0 0-.559-.559z" transform="translate(0 13.713)"/>
        </clipPath>
        <style>
            .cls-1{fill:rgba(0,0,0,.25)}
        </style>
    </defs>
    <g id="_Color_Caption" data-name="↳Color/Caption">
        <path id="Mask-2" data-name="Mask" class="cls-1" d="M12.1-13.712a.559.559 0 0 0-.558.559v.441H4.455v-.441a.559.559 0 0 0-.557-.559.559.559 0 0 0-.557.559v.441H1.283A1.285 1.285 0 0 0 0-11.427v10.142A1.285 1.285 0 0 0 1.283 0h13.435A1.285 1.285 0 0 0 16-1.285v-10.142a1.289 1.289 0 0 0-1.284-1.285h-2.058v-.441a.559.559 0 0 0-.558-.559zm0 3.133a.559.559 0 0 0 .557-.559v-.289h2.06v1.751H1.283v-1.751h2.06v.289a.559.559 0 0 0 .557.559.559.559 0 0 0 .557-.559v-.289h7.088v.289a.559.559 0 0 0 .555.558zM1.283-1.285v-7.279h13.435v7.278zm10.062-6.19H4.653a.559.559 0 0 0-.557.559.559.559 0 0 0 .557.559h6.694a.559.559 0 0 0 .557-.559.562.562 0 0 0-.559-.559zm0 3.027H4.653a.559.559 0 0 0-.557.559.559.559 0 0 0 .557.559h6.694a.559.559 0 0 0 .557-.559.562.562 0 0 0-.559-.559z" transform="translate(0 13.713)"/>
    </g>
</svg>
