<svg xmlns="http://www.w3.org/2000/svg" width="16" height="16">
    <g style="opacity:.3">
        <path data-name="Rectangle 48 Copy 36" style="fill:none" d="M0 0h16v16H0z"/>
        <path d="M5.311 15.031a4.96 4.96 0 0 1-2.748-.787c-.686-.444-1.485-1.06-1.57-1.86a1.368 1.368 0 0 1 .439-1.136 9.447 9.447 0 0 1 1.285-1.1 2.857 2.857 0 0 1 1.558-.614 1.375 1.375 0 0 1 .4.059 3.617 3.617 0 0 1 1.21.962 7.471 7.471 0 0 0 .647.6.183.183 0 0 0 .117.032 2.2 2.2 0 0 0 1.121-.541 16.212 16.212 0 0 0 1.544-1.334 13.5 13.5 0 0 0 1.537-1.842c.282-.447.4-.807.306-.94a7.413 7.413 0 0 0-.571-.616l-.023-.024-.006-.006a3.665 3.665 0 0 1-.965-1.209 2.165 2.165 0 0 1 .455-1.805 9.216 9.216 0 0 1 1.2-1.442 1.39 1.39 0 0 1 1-.444c.863 0 1.521.844 2 1.579a5.48 5.48 0 0 1 .503 4.621 9.531 9.531 0 0 1-1.1 2.393 13.127 13.127 0 0 1-1.814 2.252 9.744 9.744 0 0 1-6.525 3.202zm-1.036-4.386a1.842 1.842 0 0 0-.927.42 8.363 8.363 0 0 0-1.134.969c-.131.129-.122.205-.119.234a.8.8 0 0 0 .265.422 4.726 4.726 0 0 0 .8.624 3.874 3.874 0 0 0 2.146.608 5.479 5.479 0 0 0 1.354-.181 7.691 7.691 0 0 0 1.453-.545 9.977 9.977 0 0 0 1.485-.905 12.532 12.532 0 0 0 1.446-1.245 11.828 11.828 0 0 0 1.664-2.062 8.334 8.334 0 0 0 .978-2.109 5.391 5.391 0 0 0 .218-2.044 3.776 3.776 0 0 0-.583-1.665 4.71 4.71 0 0 0-.661-.84.727.727 0 0 0-.407-.232.341.341 0 0 0-.215.12 8.407 8.407 0 0 0-1.052 1.26c-.291.45-.362.739-.331.859a1.207 1.207 0 0 0 .143.191c.122.142.3.32.554.58l.034.036a7.1 7.1 0 0 1 .683.75 1.338 1.338 0 0 1 .233.863 2.008 2.008 0 0 1-.127.569 4.019 4.019 0 0 1-.382.745 14.309 14.309 0 0 1-1.676 2.017l-.022.023-.016.014a17.154 17.154 0 0 1-1.658 1.43 5.08 5.08 0 0 1-.959.565 2.063 2.063 0 0 1-.812.186 1.3 1.3 0 0 1-.746-.225l-.018-.018a7.73 7.73 0 0 1-.779-.715 13.862 13.862 0 0 0-.581-.552 1.55 1.55 0 0 0-.187-.142.3.3 0 0 0-.064-.005z" data-name="phone"/>
    </g>
</svg>
